<?xml version="1.0" standalone="no"?>
<!DOCTYPE svg PUBLIC "-//W3C//DTD SVG 20010904//EN"
 "http://www.w3.org/TR/2001/REC-SVG-20010904/DTD/svg10.dtd">
<svg version="1.0" xmlns="http://www.w3.org/2000/svg"
 width="400.000000pt" height="400.000000pt" viewBox="0 0 400.000000 400.000000"
 preserveAspectRatio="xMidYMid meet">
<metadata>
Created by potrace 1.11, written by Peter Selinger 2001-2013
</metadata>
<g transform="translate(0.000000,400.000000) scale(0.100000,-0.100000)"
fill="#000000" stroke="none">
<path d="M3795 2959 c-51 -13 -169 -17 -217 -9 -54 10 -60 2 -40 -53 10 -25
20 -49 24 -52 12 -13 170 -16 235 -6 97 17 97 18 72 79 -12 29 -24 52 -28 51
-3 -1 -24 -5 -46 -10z"/>
<path d="M3128 2595 c-2 -1 -38 -5 -80 -8 -134 -11 -262 -46 -252 -70 3 -8 6
-27 8 -43 1 -16 7 -28 12 -27 105 18 211 23 309 12 169 -17 305 -24 522 -23
128 0 235 2 238 5 3 3 -5 33 -17 67 -21 60 -22 61 -52 54 -60 -14 -305 -6
-394 12 -53 11 -286 27 -294 21z"/>
<path d="M3780 2199 c-164 -48 -411 -73 -730 -72 -144 0 -356 9 -411 17 -23 4
-78 9 -249 21 -41 3 -97 7 -125 10 -27 2 -152 7 -277 11 l-226 7 -22 -43 c-12
-23 -19 -44 -16 -47 5 -5 16 -6 211 -18 61 -4 126 -8 145 -10 19 -2 78 -6 130
-9 52 -4 122 -8 155 -11 33 -2 123 -7 201 -10 77 -3 167 -7 200 -10 32 -2 106
-7 164 -10 58 -4 130 -9 160 -11 98 -6 314 -6 360 1 76 11 104 15 130 20 14 3
34 7 45 9 81 17 248 68 263 81 8 7 -22 95 -32 94 -6 -1 -40 -10 -76 -20z"/>
<path d="M1076 1770 l-24 -50 35 -15 c65 -27 210 -65 303 -80 94 -14 280 -19
770 -18 908 1 1457 10 1670 29 19 1 41 3 48 3 7 1 12 15 12 36 0 31 -3 35 -27
36 -16 0 -44 3 -63 5 -61 8 -573 7 -905 -1 -334 -9 -1312 -10 -1355 -2 -14 3
-43 8 -65 12 -22 4 -89 21 -150 37 -60 17 -128 34 -150 40 -22 5 -48 11 -57
14 -13 4 -23 -7 -42 -46z"/>
<path d="M3809 1286 c-2 -2 -29 -7 -59 -11 -30 -3 -62 -8 -70 -10 -14 -4 -37
-6 -155 -19 -22 -3 -76 -7 -120 -11 -44 -3 -98 -8 -120 -10 -22 -2 -80 -7
-130 -11 -49 -3 -105 -8 -125 -10 -272 -24 -1018 -23 -1330 3 -104 8 -369 7
-570 -2 -289 -13 -479 -10 -635 10 -16 3 -55 7 -85 10 -30 3 -68 8 -85 10 -16
2 -70 7 -118 10 l-88 6 5 -28 c2 -15 5 -35 5 -44 1 -9 7 -16 14 -16 12 -1 46
-7 132 -23 75 -14 105 -19 165 -26 30 -3 63 -8 73 -10 10 -2 55 -6 100 -10 45
-3 98 -8 117 -10 19 -2 163 -6 320 -9 650 -13 824 -19 945 -30 239 -23 680
-23 826 0 13 2 60 6 104 10 44 3 112 10 150 16 39 5 88 12 110 15 94 12 156
24 365 69 76 16 241 46 283 51 29 4 53 8 55 9 5 4 -59 75 -67 75 -4 0 -10 -2
-12 -4z"/>
</g>
</svg>
